# xmcd
#
# Track frame offsets: 
#        150
#        10458
#        21712
#        33990
#        45161
#        55701
#        66826
#        76529
#        87407
#        98295
#        109119
#        120639
#        130955
#        140947
#        151214
#        160751
#        170854
#        183819
#        196186
#        206702
#        214609
#        224595
#        235451
#        247404
#        258836
#        269558
#        281179
#        291545
#        303501
#        314290
#        325879
#        336232
#
# Disc length: 4589 seconds
#
# Revision: 0
# Processed by: cddbd v1.5.2PL0 Copyright (c) Steve Scherf et al.
# Submitted via: ExactAudioCopy v1.0b4
#
DISCID=e711eb20
DTITLE=Piano Red aka Dr Feelgood and The Interns - Rockin' With Red
DYEAR=2018
DGENRE=Blues
TTITLE0=Six O'Clock
TTITLE1=Bounce
TTITLE2=Goodbye
TTITLE3=Red's Blues
TTITLE4=She Knocks Me Out
TTITLE5=Jumpin' With Daddy
TTITLE6=You Were Mine For Awhile
TTITLE7=Woo-ee
TTITLE8=Rock Baby
TTITLE9=Wild Fire
TTITLE10=Please Don't Talk AAbout Me When I'm Gone
TTITLE11=Peachtree Parade
TTITLE12=Coo Cha
TTITLE13=South
TTITLE14=One Glimpse Of Heaven
TTITLE15=Comin' On
TTITLE16=Get Up Mare
TTITLE17=So Worried
TTITLE18=This Old World
TTITLE19=I Feel Good
TTITLE20=Talk To Me
TTITLE21=Believe In Me
TTITLE22=Guitar Walk
TTITLE23=I've Been Rockin'
TTITLE24=Rockin' With Red
TTITLE25=So Shook Up
TTITLE26=Doctor Feel-Good
TTITLE27=Mister Moonlight
TTITLE28=Right String But The Wrong Yoyo
TTITLE29=What's Up Doc
TTITLE30=The Same Old Things Keep Happening
TTITLE31=Let's Have A Good Time Tonight
EXTD=
EXTT0=
EXTT1=
EXTT2=
EXTT3=
EXTT4=
EXTT5=
EXTT6=
EXTT7=
EXTT8=
EXTT9=
EXTT10=
EXTT11=
EXTT12=
EXTT13=
EXTT14=
EXTT15=
EXTT16=
EXTT17=
EXTT18=
EXTT19=
EXTT20=
EXTT21=
EXTT22=
EXTT23=
EXTT24=
EXTT25=
EXTT26=
EXTT27=
EXTT28=
EXTT29=
EXTT30=
EXTT31=
PLAYORDER=
